<?xml version="1.0" encoding="UTF-8"?>
<svg xmlns="http://www.w3.org/2000/svg" xmlns:xlink="http://www.w3.org/1999/xlink" width="100px" height="100px" viewBox="0 0 100 100" version="1.1">
<g id="surface1">
<path style=" stroke:none;fill-rule:nonzero;fill:rgb(0%,0%,0%);fill-opacity:1;" d="M 25 54.167969 L 8.332031 54.167969 C 5.832031 54.167969 4.167969 55.832031 4.167969 58.332031 L 4.167969 91.667969 C 4.167969 94.167969 5.832031 95.832031 8.332031 95.832031 L 25 95.832031 C 27.5 95.832031 29.167969 94.167969 29.167969 91.667969 L 29.167969 58.332031 C 29.167969 55.832031 27.5 54.167969 25 54.167969 Z M 91.667969 37.5 L 75 37.5 C 72.5 37.5 70.832031 39.167969 70.832031 41.667969 L 70.832031 91.667969 C 70.832031 94.167969 72.5 95.832031 75 95.832031 L 91.667969 95.832031 C 94.167969 95.832031 95.832031 94.167969 95.832031 91.667969 L 95.832031 41.667969 C 95.832031 39.167969 94.167969 37.5 91.667969 37.5 Z M 58.332031 4.167969 L 41.667969 4.167969 C 39.167969 4.167969 37.5 5.832031 37.5 8.332031 L 37.5 91.667969 C 37.5 94.167969 39.167969 95.832031 41.667969 95.832031 L 58.332031 95.832031 C 60.832031 95.832031 62.5 94.167969 62.5 91.667969 L 62.5 8.332031 C 62.5 5.832031 60.832031 4.167969 58.332031 4.167969 Z M 58.332031 4.167969 "/>
</g>
</svg>
