<?xml version="1.0" encoding="UTF-8"?>
<svg xmlns="http://www.w3.org/2000/svg" xmlns:xlink="http://www.w3.org/1999/xlink" width="100px" height="100px" viewBox="0 0 100 100" version="1.1">
<g id="surface1">
<path style=" stroke:none;fill-rule:nonzero;fill:rgb(0%,0%,0%);fill-opacity:1;" d="M 54.191406 12.871094 C 53.460938 12.871094 52.867188 13.464844 52.867188 14.195312 C 52.867188 14.265625 52.898438 14.324219 52.90625 14.390625 L 52.867188 14.390625 L 52.867188 45.828125 C 52.867188 46.558594 53.460938 47.152344 54.191406 47.152344 L 85.628906 47.152344 L 85.628906 47.113281 C 85.695312 47.125 85.753906 47.152344 85.824219 47.152344 C 86.554688 47.152344 87.148438 46.558594 87.148438 45.828125 C 86.960938 27.707031 72.3125 13.058594 54.191406 12.871094 Z M 54.191406 12.871094 "/>
<path style=" stroke:none;fill-rule:nonzero;fill:rgb(0%,0%,0%);fill-opacity:1;" d="M 79.484375 53.460938 C 79.484375 52.726562 78.890625 52.132812 78.160156 52.132812 L 49.261719 52.132812 C 48.527344 52.132812 47.9375 51.539062 47.9375 50.808594 L 47.9375 22.015625 L 47.898438 22.015625 C 47.90625 21.949219 47.9375 21.890625 47.9375 21.820312 C 47.9375 21.089844 47.34375 20.496094 46.609375 20.496094 C 46.578125 20.496094 46.550781 20.511719 46.519531 20.515625 L 46.519531 20.503906 C 46.402344 20.503906 46.285156 20.496094 46.167969 20.496094 C 27.769531 20.496094 12.851562 35.414062 12.851562 53.8125 C 12.851562 72.214844 27.769531 87.128906 46.167969 87.128906 C 64.566406 87.128906 79.484375 72.214844 79.484375 53.8125 C 79.484375 53.707031 79.480469 53.601562 79.476562 53.496094 C 79.476562 53.480469 79.484375 53.472656 79.484375 53.460938 Z M 79.484375 53.460938 "/>
</g>
</svg>
