<?xml version="1.0" encoding="UTF-8"?>
<svg xmlns="http://www.w3.org/2000/svg" xmlns:xlink="http://www.w3.org/1999/xlink" width="100px" height="100px" viewBox="0 0 100 100" version="1.1">
<g id="surface1">
<path style=" stroke:none;fill-rule:nonzero;fill:#E9ECEF;fill-opacity:1;" d="M 50 98.148438 C 23.410156 98.148438 1.851562 76.589844 1.851562 50 C 1.851562 23.410156 23.410156 1.851562 50 1.851562 C 76.589844 1.851562 98.148438 23.410156 98.148438 50 C 98.148438 76.589844 76.589844 98.148438 50 98.148438 Z M 50 98.148438 "/>
<path style=" stroke:none;fill-rule:nonzero;fill:#E9ECEF;fill-opacity:1;" d="M 50 100 C 22.429688 100 0 77.570312 0 50 C 0 22.429688 22.429688 0 50 0 C 77.570312 0 100 22.429688 100 50 C 100 77.570312 77.570312 100 50 100 Z M 50 3.703125 C 24.472656 3.703125 3.703125 24.472656 3.703125 50 C 3.703125 75.527344 24.472656 96.296875 50 96.296875 C 75.527344 96.296875 96.296875 75.527344 96.296875 50 C 96.296875 24.472656 75.527344 3.703125 50 3.703125 Z M 50 3.703125 "/>
<path style=" stroke:none;fill-rule:nonzero;fill:#7209b7;fill-opacity:1;" d="M 41.285156 74.074219 C 40.8125 74.074219 40.335938 73.894531 39.976562 73.53125 C 39.25 72.808594 39.25 71.636719 39.976562 70.914062 L 60.890625 50 L 39.976562 29.085938 C 39.25 28.363281 39.25 27.191406 39.976562 26.46875 C 40.699219 25.746094 41.871094 25.746094 42.59375 26.46875 L 63.886719 47.761719 C 65.121094 48.996094 65.121094 51.003906 63.886719 52.238281 L 42.59375 73.53125 C 42.234375 73.894531 41.757812 74.074219 41.285156 74.074219 Z M 41.285156 74.074219 "/>
</g>
</svg>
