<?xml version="1.0" encoding="UTF-8"?>
<svg xmlns="http://www.w3.org/2000/svg" xmlns:xlink="http://www.w3.org/1999/xlink" width="100px" height="100px" viewBox="0 0 100 100" version="1.1">
<g id="surface1">
<path style=" stroke:none;fill-rule:nonzero;fill:rgb(0%,0%,0%);fill-opacity:1;" d="M 84.878906 0 L 15.121094 0 C 6.78125 0 0 6.78125 0 15.121094 L 0 84.878906 C 0 93.21875 6.78125 100 15.121094 100 L 84.878906 100 C 93.21875 100 100 93.21875 100 84.878906 L 100 15.121094 C 100 6.78125 93.21875 0 84.878906 0 Z M 89.285156 48.214844 C 89.285156 49.203125 88.488281 50 87.5 50 C 86.511719 50 85.714844 49.203125 85.714844 48.214844 L 85.714844 36.453125 L 61.011719 61.15625 C 61.949219 62.566406 62.5 64.253906 62.5 66.070312 C 62.5 70.996094 58.496094 75 53.570312 75 C 48.648438 75 44.644531 70.996094 44.644531 66.070312 C 44.644531 64.253906 45.195312 62.566406 46.128906 61.15625 L 28.128906 43.15625 C 26.71875 44.089844 25.03125 44.644531 23.214844 44.644531 C 21.398438 44.644531 19.710938 44.089844 18.296875 43.15625 L 6.621094 54.832031 L 4.09375 52.308594 L 15.773438 40.628906 C 14.835938 39.21875 14.285156 37.53125 14.285156 35.714844 C 14.285156 30.792969 18.292969 26.785156 23.214844 26.785156 C 28.136719 26.785156 32.144531 30.792969 32.144531 35.714844 C 32.144531 37.53125 31.589844 39.21875 30.65625 40.628906 L 48.65625 58.628906 C 50.066406 57.695312 51.753906 57.144531 53.570312 57.144531 C 55.386719 57.144531 57.074219 57.695312 58.488281 58.628906 L 83.1875 33.929688 L 71.429688 33.929688 C 70.441406 33.929688 69.644531 33.128906 69.644531 32.144531 C 69.644531 31.15625 70.441406 30.355469 71.429688 30.355469 L 89.285156 30.355469 Z M 89.285156 48.214844 "/>
</g>
</svg>
